<svg xmlns="http://www.w3.org/2000/svg" viewBox="0 0 128 128" role="img" aria-labelledby="title desc">
  <title id="title">Hint Trap icon</title>
  <desc id="desc">A question mark trapped inside a bright puzzle card.</desc>
  <defs>
    <linearGradient id="bg" x1="0" x2="1" y1="0" y2="1">
      <stop offset="0" stop-color="#68d8ff"/>
      <stop offset="0.52" stop-color="#9d8cff"/>
      <stop offset="1" stop-color="#ffcb6b"/>
    </linearGradient>
    <filter id="shadow" x="-20%" y="-20%" width="140%" height="140%">
      <feDropShadow dx="0" dy="8" stdDeviation="8" flood-color="#050814" flood-opacity="0.35"/>
    </filter>
  </defs>
  <rect width="128" height="128" rx="30" fill="#10162f"/>
  <path d="M25 28h78a12 12 0 0 1 12 12v46a12 12 0 0 1-12 12H75l-15 16-2-16H25a12 12 0 0 1-12-12V40a12 12 0 0 1 12-12Z" fill="url(#bg)" filter="url(#shadow)"/>
  <path d="M54 77c0-15 24-13 24-29 0-9-7-15-18-15-10 0-18 5-24 13l10 10c4-5 8-8 13-8 4 0 7 2 7 6 0 8-23 8-23 23h11Z" fill="#10162f"/>
  <circle cx="49" cy="91" r="7" fill="#10162f"/>
</svg>
