<svg xmlns="http://www.w3.org/2000/svg" viewBox="0 0 128 128">
  <path d="M57 118V32c0-11 8-19 19-19s19 8 19 19v18h8c8 0 14 6 14 14v20c0 7-6 13-13 13s-13-6-13-13V67h-8v51Z" fill="#55b96e"/>
  <path d="M57 63h-8v15c0 7-6 13-13 13S23 85 23 78V58c0-8 6-14 14-14h8V32c0-11 8-19 19-19" fill="#4ca965"/>
  <path d="M69 31v75M38 60v18M101 64v18" stroke="#d8ffd0" stroke-width="4" stroke-linecap="round" opacity=".55"/>
  <path d="M44 118h64" stroke="#ffcb6b" stroke-width="8" stroke-linecap="round"/>
</svg>
