<svg xmlns="http://www.w3.org/2000/svg" viewBox="0 0 128 128">
  <path d="M64 9l12 16 19-6 2 20 19 7-12 17 12 17-19 7-2 20-19-6-12 16-12-16-19 6-2-20-19-7 12-17-12-17 19-7 2-20 19 6Z" fill="#b45b35"/>
  <circle cx="64" cy="64" r="36" fill="#f1aa49"/>
  <circle cx="49" cy="55" r="5" fill="#10162f"/>
  <circle cx="79" cy="55" r="5" fill="#10162f"/>
  <path d="M58 71h12l-6 8Z" fill="#5b2d21"/>
  <path d="M48 82c8 8 24 8 32 0" fill="none" stroke="#5b2d21" stroke-width="5" stroke-linecap="round"/>
  <path d="M36 38l-12-8M92 38l12-8" stroke="#f1aa49" stroke-width="8" stroke-linecap="round"/>
</svg>
